<svg width="173" height="56" viewBox="0 0 173 56" fill="none" xmlns="http://www.w3.org/2000/svg">
<g filter="url(#filter0_f_171_729)">
<rect x="45.1179" y="23.3444" width="4.45755" height="4.45755" rx="2.22877" transform="rotate(-90 45.1179 23.3444)" fill="#00FFA3"/>
</g>
<g filter="url(#filter1_f_171_729)">
<rect x="36.2688" y="49" width="4.45755" height="4.45755" rx="2.22877" transform="rotate(-90 36.2688 49)" fill="#00FFA3"/>
</g>
<g filter="url(#filter2_f_171_729)">
<rect x="5" y="41.1745" width="4.45755" height="4.45755" rx="2.22877" transform="rotate(-90 5 41.1745)" fill="#00FFA3"/>
</g>
<path d="M9.45752 14.4292V14.4292C12.0494 14.4292 14.281 16.2587 14.7893 18.8002L15.7339 23.5234C15.9723 24.7152 17.0187 25.5731 18.2341 25.5731V25.5731C19.8431 25.5731 21.0499 24.1011 20.7344 22.5233L19.487 16.2866C18.5261 11.4823 22.2008 7 27.1001 7H27.4753C32.3747 7 36.0493 11.4823 35.0884 16.2866L33.8411 22.5233C33.5255 24.1011 34.7323 25.5731 36.3413 25.5731V25.5731C37.5567 25.5731 38.6031 24.7152 38.8415 23.5234L39.7861 18.8002C40.2945 16.2587 42.526 14.4292 45.1179 14.4292V14.4292" stroke="url(#paint0_linear_171_729)" stroke-width="2.625" stroke-linecap="round" stroke-linejoin="round"/>
<path d="M7.22876 21.1155V21.1155C9.69059 21.1155 11.6863 23.1113 11.6863 25.5731V25.5731C11.6863 28.0349 13.682 30.0306 16.1439 30.0306H20.6014" stroke="url(#paint1_linear_171_729)" stroke-width="2.625" stroke-linecap="round"/>
<path d="M20.6014 34.4882H13.9151C12.6842 34.4882 11.6863 35.4861 11.6863 36.717V36.717C11.6863 37.9479 10.6884 38.9458 9.45753 38.9458H7.22876" stroke="url(#paint2_linear_171_729)" stroke-width="2.625" stroke-linecap="round"/>
<path d="M33.9741 30.0306H38.4317C40.8935 30.0306 42.8892 28.0349 42.8892 25.5731V25.5731C42.8892 23.1113 44.8849 21.1155 47.3468 21.1155V21.1155" stroke="url(#paint3_linear_171_729)" stroke-width="2.625" stroke-linecap="round"/>
<path d="M33.9741 34.4882H40.6604C41.8914 34.4882 42.8892 35.4861 42.8892 36.717V36.717C42.8892 37.9479 43.8871 38.9458 45.118 38.9458H47.3468" stroke="url(#paint4_linear_171_729)" stroke-width="2.625" stroke-linecap="round"/>
<path d="M25.0589 26.4481V35.6026V35.6026C25.0589 40.5263 21.0675 44.5177 16.1438 44.5177V44.5177" stroke="url(#paint5_linear_171_729)" stroke-width="2.625" stroke-linecap="round"/>
<path d="M29.5165 26.316V37.8314C29.5165 42.755 33.508 46.7464 38.4316 46.7464V46.7464" stroke="url(#paint6_linear_171_729)" stroke-width="2.625" stroke-linecap="round"/>
<mask id="path-11-outside-1_171_729" maskUnits="userSpaceOnUse" x="20.3323" y="12.4385" width="18" height="8" fill="black">
<rect fill="white" x="20.3323" y="12.4385" width="18" height="8"/>
<path fill-rule="evenodd" clip-rule="evenodd" d="M29.2913 14.4717L29.4141 15.407L30.1869 15.3055L30.3071 16.2209L30.9313 16.1389L31.0619 17.1339L31.7753 17.0402L31.9059 18.0352L35.2942 17.5902L35.1635 16.5952L35.9462 16.4924L35.8364 15.6566L36.5299 15.5655L36.3888 14.4909L37.2805 14.3738L37.1576 13.4385L29.2913 14.4717ZM21.3323 15.517L21.4551 16.4523L22.237 16.3496L22.3572 17.265L22.9887 17.1821L23.1194 18.177L23.8411 18.0823L23.9718 19.0772L27.3999 18.627L27.2692 17.632L28.0611 17.528L27.9513 16.6922L28.653 16.6001L28.5119 15.5255L29.414 15.407L29.2912 14.4717L21.3323 15.517Z"/>
</mask>
<path fill-rule="evenodd" clip-rule="evenodd" d="M29.2913 14.4717L29.4141 15.407L30.1869 15.3055L30.3071 16.2209L30.9313 16.1389L31.0619 17.1339L31.7753 17.0402L31.9059 18.0352L35.2942 17.5902L35.1635 16.5952L35.9462 16.4924L35.8364 15.6566L36.5299 15.5655L36.3888 14.4909L37.2805 14.3738L37.1576 13.4385L29.2913 14.4717ZM21.3323 15.517L21.4551 16.4523L22.237 16.3496L22.3572 17.265L22.9887 17.1821L23.1194 18.177L23.8411 18.0823L23.9718 19.0772L27.3999 18.627L27.2692 17.632L28.0611 17.528L27.9513 16.6922L28.653 16.6001L28.5119 15.5255L29.414 15.407L29.2912 14.4717L21.3323 15.517Z" fill="white"/>
<path d="M29.4141 15.407L28.7634 15.4924C28.7861 15.665 28.8764 15.8215 29.0144 15.9275C29.1525 16.0335 29.327 16.0803 29.4996 16.0576L29.4141 15.407ZM29.2913 14.4717L29.2058 13.821C28.8465 13.8682 28.5934 14.1978 28.6406 14.5571L29.2913 14.4717ZM30.1869 15.3055L30.8375 15.22C30.8149 15.0475 30.7246 14.891 30.5865 14.785C30.4485 14.679 30.274 14.6322 30.1014 14.6548L30.1869 15.3055ZM30.3071 16.2209L29.6564 16.3063C29.6791 16.4789 29.7694 16.6354 29.9074 16.7414C30.0455 16.8474 30.22 16.8942 30.3926 16.8715L30.3071 16.2209ZM30.9313 16.1389L31.5819 16.0534C31.5347 15.6941 31.2051 15.441 30.8458 15.4882L30.9313 16.1389ZM31.0619 17.1339L30.4113 17.2193C30.4585 17.5787 30.788 17.8317 31.1474 17.7845L31.0619 17.1339ZM31.7753 17.0402L32.4259 16.9547C32.4033 16.7822 32.313 16.6257 32.1749 16.5197C32.0369 16.4137 31.8624 16.3669 31.6898 16.3895L31.7753 17.0402ZM31.9059 18.0352L31.2553 18.1206C31.2779 18.2932 31.3682 18.4497 31.5063 18.5557C31.6443 18.6617 31.8188 18.7085 31.9914 18.6858L31.9059 18.0352ZM35.2942 17.5902L35.3797 18.2408C35.739 18.1936 35.9921 17.8641 35.9449 17.5047L35.2942 17.5902ZM35.1635 16.5952L35.0781 15.9445C34.7187 15.9917 34.4657 16.3213 34.5129 16.6806L35.1635 16.5952ZM35.9462 16.4924L36.0317 17.143C36.391 17.0958 36.6441 16.7663 36.5969 16.4069L35.9462 16.4924ZM35.8364 15.6566L35.751 15.0059C35.5784 15.0286 35.4219 15.1189 35.3159 15.2569C35.2099 15.395 35.1631 15.5695 35.1858 15.7421L35.8364 15.6566ZM36.5299 15.5655L36.6154 16.2162C36.788 16.1935 36.9445 16.1032 37.0505 15.9652C37.1565 15.8271 37.2033 15.6526 37.1806 15.4801L36.5299 15.5655ZM36.3888 14.4909L36.3034 13.8403C36.1308 13.8629 35.9743 13.9532 35.8683 14.0913C35.7623 14.2293 35.7155 14.4038 35.7382 14.5764L36.3888 14.4909ZM37.2805 14.3738L37.3659 15.0245C37.7253 14.9773 37.9783 14.6477 37.9311 14.2884L37.2805 14.3738ZM37.1576 13.4385L37.8083 13.3531C37.7856 13.1805 37.6953 13.024 37.5573 12.918C37.4192 12.812 37.2447 12.7652 37.0722 12.7879L37.1576 13.4385ZM21.4551 16.4523L20.8045 16.5378C20.8271 16.7103 20.9174 16.8668 21.0555 16.9728C21.1935 17.0788 21.368 17.1256 21.5406 17.103L21.4551 16.4523ZM21.3323 15.517L21.2468 14.8664C20.8875 14.9136 20.6344 15.2431 20.6816 15.6025L21.3323 15.517ZM22.237 16.3496L22.8876 16.2642C22.865 16.0916 22.7747 15.9351 22.6366 15.8291C22.4986 15.7231 22.3241 15.6763 22.1515 15.699L22.237 16.3496ZM22.3572 17.265L21.7065 17.3505C21.7537 17.7098 22.0833 17.9629 22.4427 17.9157L22.3572 17.265ZM22.9887 17.1821L23.6394 17.0966C23.5922 16.7373 23.2626 16.4842 22.9032 16.5314L22.9887 17.1821ZM23.1194 18.177L22.4687 18.2625C22.5159 18.6219 22.8455 18.8749 23.2048 18.8277L23.1194 18.177ZM23.8411 18.0823L24.4918 17.9968C24.4446 17.6375 24.115 17.3844 23.7556 17.4316L23.8411 18.0823ZM23.9718 19.0772L23.3211 19.1627C23.3438 19.3353 23.4341 19.4918 23.5721 19.5978C23.7102 19.7038 23.8847 19.7506 24.0572 19.7279L23.9718 19.0772ZM27.3999 18.627L27.4854 19.2777C27.6579 19.255 27.8144 19.1647 27.9204 19.0267C28.0264 18.8886 28.0732 18.7141 28.0506 18.5415L27.3999 18.627ZM27.2692 17.632L27.1838 16.9814C27.0112 17.004 26.8547 17.0943 26.7487 17.2324C26.6427 17.3704 26.5959 17.5449 26.6186 17.7175L27.2692 17.632ZM28.0611 17.528L28.1466 18.1787C28.3191 18.156 28.4756 18.0657 28.5816 17.9277C28.6876 17.7896 28.7344 17.6151 28.7118 17.4426L28.0611 17.528ZM27.9513 16.6922L27.8659 16.0416C27.6933 16.0642 27.5368 16.1545 27.4308 16.2926C27.3248 16.4306 27.278 16.6051 27.3007 16.7777L27.9513 16.6922ZM28.653 16.6001L28.7385 17.2507C29.0978 17.2035 29.3509 16.874 29.3037 16.5146L28.653 16.6001ZM28.5119 15.5255L28.4264 14.8748C28.0671 14.922 27.814 15.2516 27.8612 15.6109L28.5119 15.5255ZM29.414 15.407L29.4995 16.0577C29.672 16.035 29.8285 15.9447 29.9345 15.8067C30.0405 15.6686 30.0873 15.4941 30.0647 15.3215L29.414 15.407ZM29.2912 14.4717L29.9418 14.3863C29.8946 14.0269 29.5651 13.7739 29.2057 13.8211L29.2912 14.4717ZM30.0648 15.3215L29.9419 14.3862L28.6406 14.5571L28.7634 15.4924L30.0648 15.3215ZM30.1014 14.6548L29.3287 14.7563L29.4996 16.0576L30.2723 15.9561L30.1014 14.6548ZM30.9578 16.1354L30.8375 15.22L29.5362 15.3909L29.6564 16.3063L30.9578 16.1354ZM30.8458 15.4882L30.2216 15.5702L30.3926 16.8715L31.0167 16.7896L30.8458 15.4882ZM31.7126 17.0484L31.5819 16.0534L30.2806 16.2243L30.4113 17.2193L31.7126 17.0484ZM31.6898 16.3895L30.9765 16.4832L31.1474 17.7845L31.8607 17.6909L31.6898 16.3895ZM32.5566 17.9497L32.4259 16.9547L31.1246 17.1256L31.2553 18.1206L32.5566 17.9497ZM35.2088 16.9395L31.8205 17.3845L31.9914 18.6858L35.3797 18.2408L35.2088 16.9395ZM34.5129 16.6806L34.6436 17.6756L35.9449 17.5047L35.8142 16.5097L34.5129 16.6806ZM35.8608 15.8417L35.0781 15.9445L35.249 17.2458L36.0317 17.143L35.8608 15.8417ZM35.1858 15.7421L35.2956 16.5778L36.5969 16.4069L36.4871 15.5711L35.1858 15.7421ZM36.4445 14.9149L35.751 15.0059L35.9219 16.3073L36.6154 16.2162L36.4445 14.9149ZM35.7382 14.5764L35.8793 15.651L37.1806 15.4801L37.0395 14.4055L35.7382 14.5764ZM37.195 13.7232L36.3034 13.8403L36.4743 15.1416L37.3659 15.0245L37.195 13.7232ZM36.507 13.524L36.6298 14.4593L37.9311 14.2884L37.8083 13.3531L36.507 13.524ZM29.3767 15.1224L37.2431 14.0892L37.0722 12.7879L29.2058 13.821L29.3767 15.1224ZM22.1058 16.3669L21.9829 15.4316L20.6816 15.6025L20.8045 16.5378L22.1058 16.3669ZM22.1515 15.699L21.3697 15.8016L21.5406 17.103L22.3224 17.0003L22.1515 15.699ZM23.0079 17.1795L22.8876 16.2642L21.5863 16.4351L21.7065 17.3505L23.0079 17.1795ZM22.9032 16.5314L22.2717 16.6143L22.4427 17.9157L23.0742 17.8327L22.9032 16.5314ZM23.77 18.0916L23.6394 17.0966L22.338 17.2675L22.4687 18.2625L23.77 18.0916ZM23.7556 17.4316L23.0339 17.5264L23.2048 18.8277L23.9265 18.7329L23.7556 17.4316ZM24.6224 18.9918L24.4918 17.9968L23.1904 18.1677L23.3211 19.1627L24.6224 18.9918ZM27.3145 17.9763L23.8863 18.4266L24.0572 19.7279L27.4854 19.2777L27.3145 17.9763ZM26.6186 17.7175L26.7493 18.7125L28.0506 18.5415L27.9199 17.5466L26.6186 17.7175ZM27.9757 16.8773L27.1838 16.9814L27.3547 18.2827L28.1466 18.1787L27.9757 16.8773ZM27.3007 16.7777L27.4105 17.6135L28.7118 17.4426L28.602 16.6068L27.3007 16.7777ZM28.5676 15.9494L27.8659 16.0416L28.0368 17.3429L28.7385 17.2507L28.5676 15.9494ZM27.8612 15.6109L28.0023 16.6855L29.3037 16.5146L29.1625 15.44L27.8612 15.6109ZM29.3286 14.7563L28.4264 14.8748L28.5973 16.1761L29.4995 16.0577L29.3286 14.7563ZM28.6405 14.5572L28.7634 15.4925L30.0647 15.3215L29.9418 14.3863L28.6405 14.5572ZM21.4177 16.1677L29.3766 15.1224L29.2057 13.8211L21.2468 14.8664L21.4177 16.1677Z" fill="#070708" mask="url(#path-11-outside-1_171_729)"/>
<path d="M159.484 29.4338V16.281H170.103V18.8717H172.722V29.4338H169.818V19.1279H162.36V29.4338H159.484Z" fill="#00FFA3"/>
<path d="M136.073 29.4338V16.281H138.949V26.5868H143.845V16.281H146.692V26.5868H151.617V16.281H154.464V26.8715H151.902V29.4338H146.408V26.8715H144.13V29.4338H136.073Z" fill="#00FFA3"/>
<path d="M117.895 34.4443V18.8717H120.486V16.281H128.514V18.8717H131.133V26.8715H128.514V29.4338H120.77V34.4443H117.895ZM120.77 26.5868H128.229V19.1279H120.77V26.5868Z" fill="#00FFA3"/>
<path d="M114.67 22.7672C114.67 24.1163 114.375 25.3137 113.784 26.3592C113.194 27.388 112.393 28.1974 111.381 28.7877C110.369 29.3779 109.231 29.6731 107.966 29.6731C106.701 29.6731 105.563 29.3779 104.551 28.7877C103.539 28.1974 102.73 27.388 102.123 26.3592C101.532 25.3137 101.237 24.1163 101.237 22.7672C101.237 21.4012 101.532 20.2038 102.123 19.1751C102.73 18.1295 103.539 17.3116 104.551 16.7213C105.563 16.1142 106.701 15.8107 107.966 15.8107C109.231 15.8107 110.369 16.1142 111.381 16.7213C112.393 17.3116 113.194 18.1295 113.784 19.1751C114.375 20.2038 114.67 21.4012 114.67 22.7672ZM112.14 22.7672C112.14 21.8396 111.955 21.0386 111.584 20.364C111.213 19.6726 110.707 19.1329 110.066 18.745C109.442 18.3403 108.742 18.1379 107.966 18.1379C107.19 18.1379 106.482 18.3403 105.841 18.745C105.2 19.1329 104.694 19.6726 104.323 20.364C103.952 21.0386 103.767 21.8396 103.767 22.7672C103.767 23.661 103.952 24.4536 104.323 25.145C104.694 25.8365 105.2 26.3761 105.841 26.764C106.482 27.1519 107.19 27.3458 107.966 27.3458C108.742 27.3458 109.442 27.1519 110.066 26.764C110.707 26.3761 111.213 25.8365 111.584 25.145C111.955 24.4536 112.14 23.661 112.14 22.7672Z" fill="white"/>
<path d="M92.0654 16.266H98.01C98.3473 16.266 98.6256 16.3841 98.8448 16.6202C99.0809 16.8394 99.199 17.1176 99.199 17.4549C99.199 17.7754 99.0809 18.0452 98.8448 18.2644C98.6256 18.4836 98.3473 18.5933 98.01 18.5933H92.0654C91.7281 18.5933 91.4414 18.4836 91.2053 18.2644C90.9861 18.0283 90.8765 17.7501 90.8765 17.4296C90.8765 17.0923 90.9861 16.8141 91.2053 16.5949C91.4414 16.3756 91.7281 16.266 92.0654 16.266ZM94.7215 12.9775C95.0925 12.9775 95.3961 13.104 95.6322 13.3569C95.8683 13.593 95.9863 13.8966 95.9863 14.2676V26.0051C95.9863 26.3087 96.0369 26.5532 96.1381 26.7387C96.2393 26.9242 96.3742 27.0507 96.5428 27.1181C96.7284 27.1856 96.9139 27.2193 97.0994 27.2193C97.2849 27.2193 97.4451 27.1856 97.58 27.1181C97.7318 27.0507 97.9089 27.0169 98.1112 27.0169C98.3136 27.0169 98.4991 27.1097 98.6677 27.2952C98.8364 27.4807 98.9207 27.7337 98.9207 28.0541C98.9207 28.4588 98.7015 28.7877 98.263 29.0407C97.8245 29.2936 97.3523 29.4201 96.8464 29.4201C96.5597 29.4201 96.2224 29.3948 95.8346 29.3442C95.4467 29.2936 95.0672 29.1671 94.6962 28.9648C94.3421 28.7624 94.0469 28.442 93.8108 28.0035C93.5747 27.5482 93.4567 26.9158 93.4567 26.1063V14.2676C93.4567 13.8966 93.5747 13.593 93.8108 13.3569C94.0638 13.104 94.3674 12.9775 94.7215 12.9775Z" fill="white"/>
<path d="M84.1698 15.8107C85.0805 15.8107 85.89 15.9119 86.5983 16.1142C87.3066 16.2997 87.8547 16.5696 88.2425 16.9237C88.6473 17.261 88.8497 17.6573 88.8497 18.1126C88.8497 18.3993 88.7653 18.6692 88.5967 18.9221C88.4281 19.1582 88.1751 19.2763 87.8378 19.2763C87.6017 19.2763 87.3993 19.2341 87.2307 19.1498C87.0789 19.0655 86.9356 18.9643 86.8007 18.8462C86.6657 18.7282 86.4971 18.6101 86.2947 18.4921C86.1092 18.3909 85.831 18.3066 85.4599 18.2391C85.1058 18.1717 84.7854 18.1379 84.4987 18.1379C83.6049 18.1379 82.8291 18.3403 82.1714 18.745C81.5306 19.1498 81.0246 19.6979 80.6536 20.3893C80.2995 21.0807 80.1224 21.8649 80.1224 22.7419C80.1224 23.6188 80.2995 24.403 80.6536 25.0944C81.0246 25.7859 81.5221 26.3339 82.1461 26.7387C82.787 27.1434 83.529 27.3458 84.3722 27.3458C84.8781 27.3458 85.2913 27.3121 85.6117 27.2446C85.9321 27.1603 86.2104 27.0591 86.4465 26.9411C86.6995 26.7893 86.9103 26.6375 87.0789 26.4857C87.2644 26.3171 87.5174 26.2328 87.8378 26.2328C88.2088 26.2328 88.4871 26.3508 88.6726 26.5869C88.875 26.8061 88.9761 27.0844 88.9761 27.4217C88.9761 27.7927 88.7485 28.1553 88.2931 28.5094C87.8547 28.8467 87.2644 29.125 86.5224 29.3442C85.7804 29.5634 84.9624 29.6731 84.0686 29.6731C82.7532 29.6731 81.6065 29.3695 80.6283 28.7624C79.6671 28.1553 78.9166 27.3289 78.377 26.2834C77.8542 25.2378 77.5928 24.0573 77.5928 22.7419C77.5928 21.4096 77.871 20.2291 78.4276 19.2004C78.9841 18.1548 79.7598 17.3284 80.7548 16.7213C81.7498 16.1142 82.8881 15.8107 84.1698 15.8107Z" fill="white"/>
<path d="M75.0122 22.7672C75.0122 24.1163 74.7171 25.3137 74.1268 26.3592C73.5366 27.388 72.7355 28.1974 71.7237 28.7877C70.7118 29.3779 69.5735 29.6731 68.3087 29.6731C67.0438 29.6731 65.9055 29.3779 64.8937 28.7877C63.8818 28.1974 63.0723 27.388 62.4652 26.3592C61.875 25.3137 61.5798 24.1163 61.5798 22.7672C61.5798 21.4012 61.875 20.2038 62.4652 19.1751C63.0723 18.1295 63.8818 17.3116 64.8937 16.7213C65.9055 16.1142 67.0438 15.8107 68.3087 15.8107C69.5735 15.8107 70.7118 16.1142 71.7237 16.7213C72.7355 17.3116 73.5366 18.1295 74.1268 19.1751C74.7171 20.2038 75.0122 21.4012 75.0122 22.7672ZM72.4826 22.7672C72.4826 21.8396 72.2971 21.0386 71.926 20.364C71.555 19.6726 71.0491 19.1329 70.4083 18.745C69.7843 18.3403 69.0844 18.1379 68.3087 18.1379C67.5329 18.1379 66.8246 18.3403 66.1838 18.745C65.5429 19.1329 65.037 19.6726 64.666 20.364C64.295 21.0386 64.1095 21.8396 64.1095 22.7672C64.1095 23.661 64.295 24.4536 64.666 25.145C65.037 25.8365 65.5429 26.3761 66.1838 26.764C66.8246 27.1519 67.5329 27.3458 68.3087 27.3458C69.0844 27.3458 69.7843 27.1519 70.4083 26.764C71.0491 26.3761 71.555 25.8365 71.926 25.145C72.2971 24.4536 72.4826 23.661 72.4826 22.7672Z" fill="white"/>
<path d="M172.213 42.4423C172.26 42.4709 172.296 42.5085 172.321 42.5551C172.349 42.6016 172.364 42.65 172.364 42.7001C172.364 42.7646 172.342 42.8237 172.299 42.8774C172.245 42.9418 172.163 42.9741 172.052 42.9741C171.966 42.9741 171.887 42.9544 171.816 42.915C171.558 42.7682 171.429 42.4691 171.429 42.0179C171.429 41.889 171.386 41.787 171.3 41.7118C171.218 41.6366 171.098 41.599 170.94 41.599H169.936V42.641C169.936 42.7377 169.909 42.8165 169.855 42.8774C169.805 42.9383 169.737 42.9687 169.651 42.9687C169.547 42.9687 169.456 42.9383 169.377 42.8774C169.302 42.8129 169.264 42.7341 169.264 42.641V39.5363C169.264 39.4432 169.295 39.3662 169.355 39.3053C169.42 39.2408 169.499 39.2086 169.592 39.2086H171.139C171.325 39.2086 171.501 39.2588 171.665 39.359C171.83 39.4593 171.961 39.5972 172.057 39.7726C172.158 39.9481 172.208 40.1451 172.208 40.3635C172.208 40.5426 172.159 40.718 172.063 40.8899C171.966 41.0582 171.841 41.1925 171.687 41.2928C171.912 41.4503 172.036 41.6616 172.057 41.9266C172.068 41.9839 172.073 42.0394 172.073 42.0931C172.088 42.2041 172.102 42.2847 172.116 42.3349C172.131 42.3814 172.163 42.4172 172.213 42.4423ZM171.112 41.0457C171.176 41.0457 171.239 41.0152 171.3 40.9544C171.361 40.8935 171.411 40.8129 171.45 40.7127C171.49 40.6088 171.509 40.4978 171.509 40.3796C171.509 40.2793 171.49 40.188 171.45 40.1057C171.411 40.0197 171.361 39.9517 171.3 39.9015C171.239 39.8514 171.176 39.8263 171.112 39.8263H169.936V41.0457H171.112Z" fill="white"/>
<path d="M167.188 42.351C167.282 42.351 167.359 42.3833 167.419 42.4477C167.484 42.5086 167.516 42.5802 167.516 42.6626C167.516 42.7521 167.484 42.8255 167.419 42.8828C167.359 42.9401 167.282 42.9688 167.188 42.9688H165.389C165.296 42.9688 165.217 42.9383 165.153 42.8774C165.092 42.813 165.061 42.7342 165.061 42.6411V39.5363C165.061 39.4432 165.092 39.3662 165.153 39.3054C165.217 39.2409 165.296 39.2087 165.389 39.2087H167.188C167.282 39.2087 167.359 39.2391 167.419 39.3C167.484 39.3573 167.516 39.4325 167.516 39.5256C167.516 39.6151 167.486 39.6885 167.425 39.7458C167.364 39.7995 167.285 39.8264 167.188 39.8264H165.733V40.7396H166.947C167.04 40.7396 167.117 40.77 167.178 40.8309C167.242 40.8882 167.274 40.9634 167.274 41.0565C167.274 41.146 167.244 41.2194 167.183 41.2767C167.122 41.3304 167.043 41.3573 166.947 41.3573H165.733V42.351H167.188Z" fill="white"/>
<path d="M161.937 43.0225C161.679 43.0225 161.45 42.9902 161.25 42.9258C161.049 42.8613 160.861 42.7521 160.686 42.5981C160.589 42.5122 160.541 42.4173 160.541 42.3134C160.541 42.2311 160.571 42.1595 160.632 42.0986C160.693 42.0341 160.766 42.0019 160.852 42.0019C160.92 42.0019 160.981 42.0234 161.035 42.0663C161.178 42.1845 161.318 42.2705 161.454 42.3242C161.59 42.3779 161.751 42.4048 161.937 42.4048C162.138 42.4048 162.31 42.36 162.453 42.2705C162.6 42.1809 162.673 42.0699 162.673 41.9374C162.673 41.7763 162.601 41.6509 162.458 41.5614C162.315 41.4683 162.088 41.3985 161.776 41.3519C160.992 41.2373 160.6 40.8721 160.6 40.2561C160.6 40.0305 160.659 39.8354 160.777 39.6706C160.895 39.5023 161.056 39.3752 161.26 39.2893C161.464 39.1997 161.692 39.155 161.943 39.155C162.168 39.155 162.379 39.189 162.576 39.257C162.777 39.3251 162.943 39.4146 163.076 39.5256C163.18 39.608 163.232 39.7029 163.232 39.8103C163.232 39.8927 163.201 39.9661 163.14 40.0305C163.079 40.0914 163.008 40.1218 162.925 40.1218C162.872 40.1218 162.823 40.1057 162.78 40.0735C162.687 39.9983 162.557 39.9303 162.388 39.8694C162.224 39.8049 162.075 39.7727 161.943 39.7727C161.717 39.7727 161.541 39.8157 161.416 39.9016C161.294 39.984 161.233 40.0932 161.233 40.2293C161.233 40.3833 161.296 40.4996 161.421 40.5784C161.55 40.6572 161.751 40.7217 162.023 40.7718C162.331 40.8255 162.576 40.8953 162.759 40.9813C162.945 41.0637 163.085 41.1782 163.178 41.3251C163.271 41.4683 163.318 41.6599 163.318 41.8998C163.318 42.1254 163.253 42.3242 163.124 42.4961C162.999 42.6644 162.831 42.7951 162.619 42.8882C162.408 42.9777 162.181 43.0225 161.937 43.0225Z" fill="white"/>
<path d="M158.812 39.1926C158.898 39.1926 158.977 39.2266 159.049 39.2946C159.124 39.3591 159.162 39.4414 159.162 39.5417C159.162 39.5739 159.156 39.6098 159.145 39.6491L158.087 42.7646C158.066 42.8255 158.028 42.8739 157.974 42.9097C157.921 42.9455 157.862 42.9652 157.797 42.9688C157.733 42.9688 157.672 42.9509 157.615 42.915C157.557 42.8792 157.512 42.8273 157.48 42.7593L156.717 41.0243L155.949 42.7593C155.917 42.8273 155.872 42.8792 155.815 42.915C155.758 42.9509 155.697 42.9688 155.632 42.9688C155.568 42.9652 155.509 42.9455 155.455 42.9097C155.401 42.8739 155.364 42.8255 155.342 42.7646L154.284 39.6491C154.273 39.6098 154.268 39.5739 154.268 39.5417C154.268 39.4414 154.304 39.3591 154.376 39.2946C154.451 39.2266 154.533 39.1926 154.623 39.1926C154.694 39.1926 154.759 39.2123 154.816 39.2517C154.873 39.2875 154.913 39.3376 154.934 39.4021L155.734 41.83L156.433 40.1541C156.461 40.0896 156.503 40.0395 156.556 40.0037C156.61 39.9643 156.671 39.9464 156.739 39.95C156.807 39.9464 156.866 39.9643 156.916 40.0037C156.97 40.0395 157.011 40.0896 157.04 40.1541L157.7 41.8139L158.495 39.4021C158.517 39.3376 158.556 39.2875 158.614 39.2517C158.675 39.2123 158.741 39.1926 158.812 39.1926Z" fill="white"/>
<path d="M152.867 41.0887C152.867 41.4432 152.789 41.7691 152.631 42.0663C152.474 42.36 152.255 42.5928 151.976 42.7646C151.7 42.9365 151.389 43.0225 151.041 43.0225C150.694 43.0225 150.38 42.9365 150.101 42.7646C149.825 42.5928 149.609 42.36 149.451 42.0663C149.297 41.7691 149.22 41.4432 149.22 41.0887C149.22 40.7342 149.297 40.4101 149.451 40.1165C149.609 39.8192 149.825 39.5847 150.101 39.4128C150.38 39.2409 150.694 39.155 151.041 39.155C151.389 39.155 151.7 39.2409 151.976 39.4128C152.255 39.5847 152.474 39.8192 152.631 40.1165C152.789 40.4101 152.867 40.7342 152.867 41.0887ZM152.169 41.0887C152.169 40.8488 152.121 40.6321 152.024 40.4388C151.927 40.2418 151.793 40.086 151.621 39.9714C151.449 39.8568 151.256 39.7996 151.041 39.7996C150.823 39.7996 150.628 39.8568 150.456 39.9714C150.287 40.0825 150.155 40.2364 150.058 40.4334C149.965 40.6304 149.919 40.8488 149.919 41.0887C149.919 41.3287 149.965 41.5471 150.058 41.7441C150.155 41.941 150.287 42.0968 150.456 42.2114C150.628 42.3224 150.823 42.3779 151.041 42.3779C151.256 42.3779 151.449 42.3206 151.621 42.206C151.793 42.0914 151.927 41.9374 152.024 41.7441C152.121 41.5471 152.169 41.3287 152.169 41.0887Z" fill="white"/>
<path d="M147.594 42.4423C147.64 42.471 147.676 42.5086 147.701 42.5552C147.73 42.6017 147.744 42.65 147.744 42.7002C147.744 42.7646 147.722 42.8237 147.679 42.8774C147.626 42.9419 147.543 42.9741 147.432 42.9741C147.346 42.9741 147.268 42.9544 147.196 42.915C146.938 42.7682 146.809 42.4692 146.809 42.018C146.809 41.8891 146.766 41.787 146.68 41.7118C146.598 41.6366 146.478 41.599 146.32 41.599H145.316V42.6411C145.316 42.7378 145.289 42.8166 145.235 42.8774C145.185 42.9383 145.117 42.9688 145.031 42.9688C144.927 42.9688 144.836 42.9383 144.757 42.8774C144.682 42.813 144.645 42.7342 144.645 42.6411V39.5363C144.645 39.4432 144.675 39.3662 144.736 39.3054C144.8 39.2409 144.879 39.2087 144.972 39.2087H146.519C146.705 39.2087 146.881 39.2588 147.046 39.3591C147.21 39.4594 147.341 39.5972 147.438 39.7727C147.538 39.9482 147.588 40.1451 147.588 40.3636C147.588 40.5426 147.54 40.7181 147.443 40.89C147.346 41.0583 147.221 41.1926 147.067 41.2928C147.293 41.4504 147.416 41.6617 147.438 41.9267C147.448 41.984 147.454 42.0395 147.454 42.0932C147.468 42.2042 147.482 42.2848 147.497 42.3349C147.511 42.3815 147.543 42.4173 147.594 42.4423ZM146.492 41.0457C146.557 41.0457 146.619 41.0153 146.68 40.9544C146.741 40.8936 146.791 40.813 146.831 40.7127C146.87 40.6089 146.89 40.4978 146.89 40.3797C146.89 40.2794 146.87 40.1881 146.831 40.1057C146.791 40.0198 146.741 39.9517 146.68 39.9016C146.619 39.8515 146.557 39.8264 146.492 39.8264H145.316V41.0457H146.492Z" fill="white"/>
<path d="M142.253 40.8845C142.442 40.9597 142.596 41.0743 142.715 41.2283C142.836 41.3823 142.897 41.581 142.897 41.8246C142.897 42.2507 142.775 42.5479 142.532 42.7162C142.288 42.8845 141.998 42.9687 141.662 42.9687H140.324C140.231 42.9687 140.152 42.9383 140.088 42.8774C140.027 42.8129 139.997 42.7341 139.997 42.641V39.5363C139.997 39.4432 140.027 39.3662 140.088 39.3053C140.152 39.2408 140.231 39.2086 140.324 39.2086H141.678C142.358 39.2086 142.698 39.5273 142.698 40.1648C142.698 40.3259 142.659 40.4691 142.58 40.5945C142.505 40.7162 142.396 40.8129 142.253 40.8845ZM142 40.2829C142 40.1361 141.963 40.0269 141.887 39.9553C141.816 39.8801 141.714 39.8425 141.581 39.8425H140.695V40.6804H141.597C141.705 40.6804 141.798 40.6446 141.877 40.573C141.959 40.5014 142 40.4047 142 40.2829ZM141.662 42.351C141.83 42.351 141.961 42.3062 142.054 42.2167C142.151 42.1272 142.199 41.9964 142.199 41.8246C142.199 41.6133 142.143 41.4754 142.032 41.411C141.921 41.3465 141.785 41.3143 141.624 41.3143H140.695V42.351H141.662Z" fill="white"/>
<path d="M135.496 42.4423C135.542 42.4709 135.578 42.5085 135.603 42.5551C135.632 42.6016 135.646 42.65 135.646 42.7001C135.646 42.7646 135.625 42.8237 135.582 42.8774C135.528 42.9418 135.445 42.9741 135.334 42.9741C135.249 42.9741 135.17 42.9544 135.098 42.915C134.84 42.7682 134.711 42.4691 134.711 42.0179C134.711 41.889 134.668 41.787 134.582 41.7118C134.5 41.6366 134.38 41.599 134.223 41.599H133.218V42.641C133.218 42.7377 133.191 42.8165 133.137 42.8774C133.087 42.9383 133.019 42.9687 132.933 42.9687C132.83 42.9687 132.738 42.9383 132.659 42.8774C132.584 42.8129 132.547 42.7341 132.547 42.641V39.5363C132.547 39.4432 132.577 39.3662 132.638 39.3053C132.702 39.2408 132.781 39.2086 132.874 39.2086H134.421C134.608 39.2086 134.783 39.2588 134.948 39.359C135.112 39.4593 135.243 39.5972 135.34 39.7726C135.44 39.9481 135.49 40.1451 135.49 40.3635C135.49 40.5426 135.442 40.718 135.345 40.8899C135.249 41.0582 135.123 41.1925 134.969 41.2928C135.195 41.4503 135.318 41.6616 135.34 41.9266C135.351 41.9839 135.356 42.0394 135.356 42.0931C135.37 42.2041 135.385 42.2847 135.399 42.3349C135.413 42.3814 135.445 42.4172 135.496 42.4423ZM134.394 41.0457C134.459 41.0457 134.522 41.0152 134.582 40.9544C134.643 40.8935 134.693 40.8129 134.733 40.7127C134.772 40.6088 134.792 40.4978 134.792 40.3796C134.792 40.2793 134.772 40.188 134.733 40.1057C134.693 40.0197 134.643 39.9517 134.582 39.9015C134.522 39.8514 134.459 39.8263 134.394 39.8263H133.218V41.0457H134.394Z" fill="white"/>
<path d="M130.302 39.2032C130.395 39.2032 130.471 39.2336 130.528 39.2945C130.585 39.3554 130.614 39.4342 130.614 39.5308V41.4753C130.614 41.7726 130.551 42.0358 130.426 42.265C130.3 42.4942 130.125 42.6732 129.899 42.8021C129.674 42.931 129.416 42.9955 129.126 42.9955C128.836 42.9955 128.576 42.931 128.347 42.8021C128.121 42.6732 127.946 42.4942 127.821 42.265C127.695 42.0358 127.633 41.7726 127.633 41.4753V39.5308C127.633 39.4377 127.665 39.3608 127.729 39.2999C127.794 39.2354 127.876 39.2032 127.976 39.2032C128.062 39.2032 128.137 39.2354 128.202 39.2999C128.266 39.3608 128.299 39.4377 128.299 39.5308V41.4753C128.299 41.6472 128.336 41.8012 128.411 41.9373C128.487 42.0698 128.587 42.1719 128.712 42.2435C128.841 42.3151 128.979 42.3509 129.126 42.3509C129.28 42.3509 129.423 42.3151 129.556 42.2435C129.692 42.1719 129.799 42.0698 129.878 41.9373C129.96 41.8012 130.001 41.6472 130.001 41.4753V39.5308C130.001 39.4342 130.028 39.3554 130.082 39.2945C130.136 39.2336 130.209 39.2032 130.302 39.2032Z" fill="white"/>
<path d="M125.888 41.0887C125.888 41.4432 125.809 41.7691 125.651 42.0663C125.494 42.36 125.275 42.5928 124.996 42.7646C124.72 42.9365 124.409 43.0225 124.061 43.0225C123.714 43.0225 123.401 42.9365 123.121 42.7646C122.846 42.5928 122.629 42.36 122.471 42.0663C122.317 41.7691 122.24 41.4432 122.24 41.0887C122.24 40.7342 122.317 40.4101 122.471 40.1165C122.629 39.8192 122.846 39.5847 123.121 39.4128C123.401 39.2409 123.714 39.155 124.061 39.155C124.409 39.155 124.72 39.2409 124.996 39.4128C125.275 39.5847 125.494 39.8192 125.651 40.1165C125.809 40.4101 125.888 40.7342 125.888 41.0887ZM125.189 41.0887C125.189 40.8488 125.141 40.6321 125.044 40.4388C124.948 40.2418 124.813 40.086 124.642 39.9714C124.47 39.8568 124.276 39.7996 124.061 39.7996C123.843 39.7996 123.648 39.8568 123.476 39.9714C123.308 40.0825 123.175 40.2364 123.078 40.4334C122.985 40.6304 122.939 40.8488 122.939 41.0887C122.939 41.3287 122.985 41.5471 123.078 41.7441C123.175 41.941 123.308 42.0968 123.476 42.2114C123.648 42.3224 123.843 42.3779 124.061 42.3779C124.276 42.3779 124.47 42.3206 124.642 42.206C124.813 42.0914 124.948 41.9374 125.044 41.7441C125.141 41.5471 125.189 41.3287 125.189 41.0887Z" fill="white"/>
<path d="M120.96 39.5256C120.96 39.5972 120.94 39.6635 120.901 39.7243L119.778 41.3304V42.6411C119.778 42.7342 119.748 42.813 119.687 42.8774C119.626 42.9383 119.552 42.9688 119.466 42.9688C119.377 42.9688 119.3 42.9383 119.235 42.8774C119.175 42.813 119.144 42.7342 119.144 42.6411V41.2552L118.027 39.7727C117.962 39.6867 117.93 39.6026 117.93 39.5202C117.93 39.4271 117.966 39.3501 118.038 39.2893C118.113 39.2248 118.192 39.1926 118.274 39.1926C118.374 39.1926 118.462 39.2427 118.537 39.343L119.483 40.6483L120.369 39.3537C120.444 39.2463 120.534 39.1926 120.637 39.1926C120.723 39.1926 120.799 39.2248 120.863 39.2893C120.927 39.3537 120.96 39.4325 120.96 39.5256Z" fill="white"/>
<path d="M113.383 39.2087C113.469 39.2087 113.539 39.2373 113.592 39.2946C113.646 39.3519 113.673 39.4235 113.673 39.5095V42.6411C113.673 42.7342 113.641 42.813 113.576 42.8774C113.515 42.9383 113.438 42.9688 113.345 42.9688C113.295 42.9688 113.245 42.9616 113.195 42.9473C113.148 42.9294 113.114 42.9061 113.093 42.8774L111.121 40.3743V42.668C111.121 42.7539 111.093 42.8255 111.035 42.8828C110.982 42.9401 110.91 42.9688 110.821 42.9688C110.735 42.9688 110.665 42.9401 110.611 42.8828C110.557 42.8255 110.531 42.7539 110.531 42.668V39.5363C110.531 39.4432 110.561 39.3662 110.622 39.3054C110.686 39.2409 110.765 39.2087 110.858 39.2087C110.912 39.2087 110.964 39.2194 111.014 39.2409C111.068 39.2624 111.107 39.291 111.132 39.3269L113.087 41.8192V39.5095C113.087 39.4235 113.114 39.3519 113.168 39.2946C113.225 39.2373 113.297 39.2087 113.383 39.2087Z" fill="white"/>
<path d="M108.594 42.6411C108.594 42.7342 108.56 42.813 108.492 42.8774C108.424 42.9383 108.345 42.9688 108.255 42.9688C108.159 42.9688 108.078 42.9383 108.014 42.8774C107.953 42.813 107.922 42.7342 107.922 42.6411V39.5363C107.922 39.4432 107.955 39.3662 108.019 39.3054C108.084 39.2409 108.166 39.2087 108.266 39.2087C108.356 39.2087 108.433 39.2409 108.497 39.3054C108.562 39.3662 108.594 39.4432 108.594 39.5363V42.6411Z" fill="white"/>
<path d="M103.193 40.9383C103.286 40.9383 103.363 40.9705 103.424 41.035C103.485 41.0959 103.516 41.1729 103.516 41.266V42.4048C103.516 42.5301 103.46 42.6268 103.349 42.6948C102.998 42.9133 102.613 43.0225 102.194 43.0225C101.84 43.0225 101.512 42.9365 101.211 42.7646C100.91 42.5892 100.672 42.3546 100.497 42.061C100.321 41.7637 100.234 41.4397 100.234 41.0887C100.234 40.7378 100.321 40.4155 100.497 40.1218C100.672 39.8246 100.91 39.5901 101.211 39.4182C101.512 39.2427 101.84 39.155 102.194 39.155C102.549 39.155 102.857 39.2266 103.118 39.3698C103.172 39.3985 103.211 39.4361 103.236 39.4826C103.265 39.5292 103.279 39.5793 103.279 39.633C103.279 39.7226 103.249 39.8013 103.188 39.8694C103.131 39.9338 103.059 39.9661 102.973 39.9661C102.919 39.9661 102.86 39.9517 102.796 39.9231C102.602 39.8407 102.402 39.7996 102.194 39.7996C101.965 39.7996 101.754 39.8586 101.56 39.9768C101.367 40.0914 101.213 40.2472 101.098 40.4441C100.987 40.6411 100.932 40.856 100.932 41.0887C100.932 41.3215 100.987 41.5364 101.098 41.7333C101.213 41.9303 101.367 42.0878 101.56 42.206C101.754 42.3206 101.965 42.3779 102.194 42.3779C102.295 42.3779 102.402 42.3689 102.517 42.351C102.631 42.3331 102.731 42.3099 102.817 42.2812V41.5829H102.312C102.219 41.5829 102.141 41.5525 102.076 41.4916C102.015 41.4307 101.985 41.3537 101.985 41.2606C101.985 41.1675 102.015 41.0905 102.076 41.0296C102.141 40.9688 102.219 40.9383 102.312 40.9383H103.193Z" fill="white"/>
<path d="M98.1953 39.2086C98.2813 39.2086 98.3511 39.2373 98.4048 39.2946C98.4585 39.3519 98.4854 39.4235 98.4854 39.5094V42.641C98.4854 42.7341 98.4531 42.8129 98.3887 42.8774C98.3278 42.9383 98.2508 42.9687 98.1577 42.9687C98.1076 42.9687 98.0574 42.9615 98.0073 42.9472C97.9608 42.9293 97.9267 42.906 97.9052 42.8774L95.9339 40.3742V42.6679C95.9339 42.7538 95.9052 42.8255 95.8479 42.8828C95.7942 42.94 95.7226 42.9687 95.6331 42.9687C95.5471 42.9687 95.4773 42.94 95.4236 42.8828C95.3699 42.8255 95.343 42.7538 95.343 42.6679V39.5363C95.343 39.4432 95.3735 39.3662 95.4343 39.3053C95.4988 39.2408 95.5776 39.2086 95.6707 39.2086C95.7244 39.2086 95.7763 39.2194 95.8265 39.2408C95.8802 39.2623 95.9196 39.291 95.9446 39.3268L97.8999 41.8192V39.5094C97.8999 39.4235 97.9267 39.3519 97.9804 39.2946C98.0377 39.2373 98.1094 39.2086 98.1953 39.2086Z" fill="white"/>
<path d="M93.4078 42.641C93.4078 42.7341 93.3738 42.8129 93.3057 42.8774C93.2377 42.9383 93.1589 42.9687 93.0694 42.9687C92.9727 42.9687 92.8921 42.9383 92.8276 42.8774C92.7668 42.8129 92.7363 42.7341 92.7363 42.641V39.5363C92.7363 39.4432 92.7686 39.3662 92.833 39.3053C92.8975 39.2408 92.9798 39.2086 93.0801 39.2086C93.1696 39.2086 93.2466 39.2408 93.3111 39.3053C93.3755 39.3662 93.4078 39.4432 93.4078 39.5363V42.641Z" fill="white"/>
<path d="M90.7163 39.2087C90.813 39.2087 90.8918 39.2373 90.9526 39.2946C91.0135 39.3519 91.044 39.4271 91.044 39.5202C91.044 39.6133 91.0135 39.6885 90.9526 39.7458C90.8918 39.7995 90.813 39.8264 90.7163 39.8264H89.873V42.6411C89.873 42.7342 89.8389 42.813 89.7709 42.8774C89.7029 42.9383 89.6187 42.9688 89.5184 42.9688C89.4182 42.9688 89.3358 42.9383 89.2714 42.8774C89.2069 42.813 89.1747 42.7342 89.1747 42.6411V39.8264H88.3313C88.2346 39.8264 88.1559 39.7978 88.095 39.7405C88.0341 39.6832 88.0037 39.608 88.0037 39.5149C88.0037 39.4253 88.0341 39.3519 88.095 39.2946C88.1594 39.2373 88.2382 39.2087 88.3313 39.2087H90.7163Z" fill="white"/>
<path d="M85.121 43.0225C84.8631 43.0225 84.6339 42.9902 84.4334 42.9258C84.2329 42.8613 84.0449 42.7521 83.8694 42.5981C83.7727 42.5122 83.7244 42.4173 83.7244 42.3134C83.7244 42.2311 83.7548 42.1595 83.8157 42.0986C83.8766 42.0341 83.95 42.0019 84.0359 42.0019C84.104 42.0019 84.1648 42.0234 84.2185 42.0663C84.3618 42.1845 84.5014 42.2705 84.6375 42.3242C84.7736 42.3779 84.9348 42.4048 85.121 42.4048C85.3215 42.4048 85.4934 42.36 85.6366 42.2705C85.7835 42.1809 85.8569 42.0699 85.8569 41.9374C85.8569 41.7763 85.7852 41.6509 85.642 41.5614C85.4988 41.4683 85.2714 41.3985 84.9598 41.3519C84.1756 41.2373 83.7835 40.8721 83.7835 40.2561C83.7835 40.0305 83.8425 39.8354 83.9607 39.6706C84.0789 39.5023 84.24 39.3752 84.4442 39.2893C84.6483 39.1997 84.8757 39.155 85.1263 39.155C85.3519 39.155 85.5632 39.189 85.7602 39.257C85.9607 39.3251 86.1272 39.4146 86.2597 39.5256C86.3636 39.608 86.4155 39.7029 86.4155 39.8103C86.4155 39.8927 86.3851 39.9661 86.3242 40.0305C86.2633 40.0914 86.1917 40.1218 86.1093 40.1218C86.0556 40.1218 86.0073 40.1057 85.9643 40.0735C85.8712 39.9983 85.7405 39.9303 85.5722 39.8694C85.4074 39.8049 85.2588 39.7727 85.1263 39.7727C84.9007 39.7727 84.7253 39.8157 84.5999 39.9016C84.4782 39.984 84.4173 40.0932 84.4173 40.2293C84.4173 40.3833 84.48 40.4996 84.6053 40.5784C84.7342 40.6572 84.9348 40.7217 85.2069 40.7718C85.5149 40.8255 85.7602 40.8953 85.9428 40.9813C86.129 41.0637 86.2687 41.1782 86.3618 41.3251C86.4549 41.4683 86.5015 41.6599 86.5015 41.8998C86.5015 42.1254 86.437 42.3242 86.3081 42.4961C86.1827 42.6644 86.0144 42.7951 85.8032 42.8882C85.5919 42.9777 85.3645 43.0225 85.121 43.0225Z" fill="white"/>
<path d="M81.8366 42.351C81.9297 42.351 82.0067 42.3832 82.0676 42.4477C82.132 42.5085 82.1643 42.5802 82.1643 42.6625C82.1643 42.752 82.132 42.8255 82.0676 42.8828C82.0067 42.94 81.9297 42.9687 81.8366 42.9687H80.0371C79.944 42.9687 79.8652 42.9383 79.8008 42.8774C79.7399 42.8129 79.7095 42.7341 79.7095 42.641V39.5363C79.7095 39.4432 79.7399 39.3662 79.8008 39.3053C79.8652 39.2408 79.944 39.2086 80.0371 39.2086H81.8366C81.9297 39.2086 82.0067 39.2391 82.0676 39.2999C82.132 39.3572 82.1643 39.4324 82.1643 39.5255C82.1643 39.6151 82.1338 39.6885 82.073 39.7458C82.0121 39.7995 81.9333 39.8263 81.8366 39.8263H80.3809V40.7395H81.5949C81.688 40.7395 81.765 40.7699 81.8259 40.8308C81.8903 40.8881 81.9225 40.9633 81.9225 41.0564C81.9225 41.146 81.8921 41.2194 81.8312 41.2767C81.7704 41.3304 81.6916 41.3572 81.5949 41.3572H80.3809V42.351H81.8366Z" fill="white"/>
<path d="M77.6909 39.2086C77.7876 39.2086 77.8664 39.2373 77.9273 39.2946C77.9881 39.3519 78.0186 39.4271 78.0186 39.5202C78.0186 39.6133 77.9881 39.6885 77.9273 39.7458C77.8664 39.7995 77.7876 39.8263 77.6909 39.8263H76.8476V42.641C76.8476 42.7341 76.8136 42.8129 76.7455 42.8774C76.6775 42.9383 76.5933 42.9687 76.493 42.9687C76.3928 42.9687 76.3104 42.9383 76.246 42.8774C76.1815 42.8129 76.1493 42.7341 76.1493 42.641V39.8263H75.3059C75.2092 39.8263 75.1305 39.7977 75.0696 39.7404C75.0087 39.6831 74.9783 39.6079 74.9783 39.5148C74.9783 39.4253 75.0087 39.3519 75.0696 39.2946C75.134 39.2373 75.2128 39.2086 75.3059 39.2086H77.6909Z" fill="white"/>
<path d="M72.9944 39.2086C73.0803 39.2086 73.1502 39.2373 73.2039 39.2946C73.2576 39.3519 73.2844 39.4235 73.2844 39.5094V42.641C73.2844 42.7341 73.2522 42.8129 73.1878 42.8774C73.1269 42.9383 73.0499 42.9687 72.9568 42.9687C72.9066 42.9687 72.8565 42.9615 72.8064 42.9472C72.7598 42.9293 72.7258 42.906 72.7043 42.8774L70.733 40.3742V42.6679C70.733 42.7538 70.7043 42.8255 70.647 42.8828C70.5933 42.94 70.5217 42.9687 70.4322 42.9687C70.3462 42.9687 70.2764 42.94 70.2227 42.8828C70.1689 42.8255 70.1421 42.7538 70.1421 42.6679V39.5363C70.1421 39.4432 70.1725 39.3662 70.2334 39.3053C70.2979 39.2408 70.3766 39.2086 70.4698 39.2086C70.5235 39.2086 70.5754 39.2194 70.6255 39.2408C70.6792 39.2623 70.7186 39.291 70.7437 39.3268L72.6989 41.8192V39.5094C72.6989 39.4235 72.7258 39.3519 72.7795 39.2946C72.8368 39.2373 72.9084 39.2086 72.9944 39.2086Z" fill="white"/>
<path d="M68.0663 42.351C68.1594 42.351 68.2364 42.3832 68.2973 42.4477C68.3618 42.5085 68.394 42.5802 68.394 42.6625C68.394 42.752 68.3618 42.8255 68.2973 42.8828C68.2364 42.94 68.1594 42.9687 68.0663 42.9687H66.2669C66.1738 42.9687 66.095 42.9383 66.0305 42.8774C65.9696 42.8129 65.9392 42.7341 65.9392 42.641V39.5363C65.9392 39.4432 65.9696 39.3662 66.0305 39.3053C66.095 39.2408 66.1738 39.2086 66.2669 39.2086H68.0663C68.1594 39.2086 68.2364 39.2391 68.2973 39.2999C68.3618 39.3572 68.394 39.4324 68.394 39.5255C68.394 39.6151 68.3636 39.6885 68.3027 39.7458C68.2418 39.7995 68.163 39.8263 68.0663 39.8263H66.6107V40.7395H67.8246C67.9177 40.7395 67.9947 40.7699 68.0556 40.8308C68.1201 40.8881 68.1523 40.9633 68.1523 41.0564C68.1523 41.146 68.1218 41.2194 68.061 41.2767C68.0001 41.3304 67.9213 41.3572 67.8246 41.3572H66.6107V42.351H68.0663Z" fill="white"/>
<path d="M63.1276 39.2087C63.3102 39.2087 63.4839 39.2642 63.6486 39.3752C63.8133 39.4826 63.9458 39.6295 64.0461 39.8157C64.1464 39.9983 64.1965 40.1988 64.1965 40.4173C64.1965 40.6321 64.1464 40.8327 64.0461 41.0189C63.9458 41.2051 63.8133 41.3537 63.6486 41.4647C63.4839 41.5722 63.3102 41.6259 63.1276 41.6259H62.1929V42.6411C62.1929 42.7378 62.1643 42.8166 62.107 42.8774C62.0497 42.9383 61.9745 42.9688 61.8814 42.9688C61.7918 42.9688 61.7184 42.9383 61.6611 42.8774C61.6038 42.813 61.5752 42.7342 61.5752 42.6411V39.5363C61.5752 39.4432 61.6056 39.3662 61.6665 39.3054C61.731 39.2409 61.8098 39.2087 61.9029 39.2087H63.1276ZM63.1276 41.0135C63.1956 41.0135 63.2619 40.9849 63.3263 40.9276C63.3944 40.8703 63.4481 40.7969 63.4875 40.7073C63.5304 40.6142 63.5519 40.5175 63.5519 40.4173C63.5519 40.317 63.5304 40.2221 63.4875 40.1326C63.4481 40.0395 63.3944 39.9661 63.3263 39.9124C63.2619 39.8551 63.1956 39.8264 63.1276 39.8264H62.1929V41.0135H63.1276Z" fill="white"/>
<defs>
<filter id="filter0_f_171_729" x="40.1524" y="13.9213" width="14.3886" height="14.3886" filterUnits="userSpaceOnUse" color-interpolation-filters="sRGB">
<feFlood flood-opacity="0" result="BackgroundImageFix"/>
<feBlend mode="normal" in="SourceGraphic" in2="BackgroundImageFix" result="shape"/>
<feGaussianBlur stdDeviation="2.48276" result="effect1_foregroundBlur_171_729"/>
</filter>
<filter id="filter1_f_171_729" x="31.3033" y="39.577" width="14.3886" height="14.3886" filterUnits="userSpaceOnUse" color-interpolation-filters="sRGB">
<feFlood flood-opacity="0" result="BackgroundImageFix"/>
<feBlend mode="normal" in="SourceGraphic" in2="BackgroundImageFix" result="shape"/>
<feGaussianBlur stdDeviation="2.48276" result="effect1_foregroundBlur_171_729"/>
</filter>
<filter id="filter2_f_171_729" x="0.0344739" y="31.7515" width="14.3886" height="14.3886" filterUnits="userSpaceOnUse" color-interpolation-filters="sRGB">
<feFlood flood-opacity="0" result="BackgroundImageFix"/>
<feBlend mode="normal" in="SourceGraphic" in2="BackgroundImageFix" result="shape"/>
<feGaussianBlur stdDeviation="2.48276" result="effect1_foregroundBlur_171_729"/>
</filter>
<linearGradient id="paint0_linear_171_729" x1="30.3915" y1="10.8632" x2="21.4929" y2="29.1639" gradientUnits="userSpaceOnUse">
<stop stop-color="#00FFA3"/>
<stop offset="1" stop-color="#070708"/>
</linearGradient>
<linearGradient id="paint1_linear_171_729" x1="7.24527" y1="21.099" x2="20.6179" y2="30.0141" gradientUnits="userSpaceOnUse">
<stop stop-color="#00FFA3"/>
<stop offset="1" stop-color="#070708"/>
</linearGradient>
<linearGradient id="paint2_linear_171_729" x1="7.24527" y1="38.9293" x2="20.6179" y2="34.4717" gradientUnits="userSpaceOnUse">
<stop stop-color="#00FFA3"/>
<stop offset="1" stop-color="#070708"/>
</linearGradient>
<linearGradient id="paint3_linear_171_729" x1="47.3468" y1="30.0306" x2="33.9741" y2="30.0306" gradientUnits="userSpaceOnUse">
<stop stop-color="#00FFA3"/>
<stop offset="1" stop-color="#070708"/>
</linearGradient>
<linearGradient id="paint4_linear_171_729" x1="47.3468" y1="38.9458" x2="33.9741" y2="38.9458" gradientUnits="userSpaceOnUse">
<stop stop-color="#00FFA3"/>
<stop offset="1" stop-color="#070708"/>
</linearGradient>
<linearGradient id="paint5_linear_171_729" x1="25.0754" y1="24.0377" x2="16.1603" y2="44.5094" gradientUnits="userSpaceOnUse">
<stop stop-color="#00FFA3"/>
<stop offset="1" stop-color="#070708"/>
</linearGradient>
<linearGradient id="paint6_linear_171_729" x1="29.5331" y1="23.5425" x2="38.4481" y2="46.7547" gradientUnits="userSpaceOnUse">
<stop stop-color="#070708"/>
<stop offset="1" stop-color="#00FFA3"/>
</linearGradient>
</defs>
</svg>
