<svg width="84" height="74" viewBox="0 0 84 74" fill="none" xmlns="http://www.w3.org/2000/svg">
<g filter="url(#filter0_f_171_780)">
<rect x="69.1321" y="26.9056" width="6.79245" height="6.79245" rx="3.39623" transform="rotate(-90 69.1321 26.9056)" fill="#00FFA3"/>
</g>
<g filter="url(#filter1_f_171_780)">
<rect x="55.6477" y="66" width="6.79245" height="6.79245" rx="3.39623" transform="rotate(-90 55.6477 66)" fill="#00FFA3"/>
</g>
<g filter="url(#filter2_f_171_780)">
<rect x="8" y="54.0754" width="6.79245" height="6.79245" rx="3.39623" transform="rotate(-90 8 54.0754)" fill="#00FFA3"/>
</g>
<path d="M14.7925 13.3208V13.3208C18.742 13.3208 22.1425 16.1085 22.917 19.9813L24.3565 27.1785C24.7197 28.9946 26.3143 30.3019 28.1664 30.3019V30.3019C30.6182 30.3019 32.4571 28.0588 31.9762 25.6546L30.0755 16.1509C28.6113 8.83017 34.2107 2 41.6765 2H42.2481C49.7138 2 55.3132 8.83017 53.8491 16.1509L51.9483 25.6546C51.4675 28.0588 53.3064 30.3019 55.7582 30.3019V30.3019C57.6103 30.3019 59.2049 28.9946 59.5681 27.1785L61.0075 19.9813C61.7821 16.1085 65.1826 13.3208 69.1321 13.3208V13.3208" stroke="url(#paint0_linear_171_780)" stroke-width="4" stroke-linecap="round" stroke-linejoin="round"/>
<path d="M11.3962 23.5094V23.5094C15.1476 23.5094 18.1887 26.5505 18.1887 30.3019V30.3019C18.1887 34.0532 21.2298 37.0943 24.9811 37.0943H31.7736" stroke="url(#paint1_linear_171_780)" stroke-width="4" stroke-linecap="round"/>
<path d="M31.7736 43.8867H21.5849C19.7092 43.8867 18.1887 45.4073 18.1887 47.2829V47.2829C18.1887 49.1586 16.6681 50.6792 14.7925 50.6792H11.3962" stroke="url(#paint2_linear_171_780)" stroke-width="4" stroke-linecap="round"/>
<path d="M52.1509 37.0943H58.9433C62.6947 37.0943 65.7358 34.0532 65.7358 30.3019V30.3019C65.7358 26.5505 68.7769 23.5094 72.5282 23.5094V23.5094" stroke="url(#paint3_linear_171_780)" stroke-width="4" stroke-linecap="round"/>
<path d="M52.1509 43.8867H62.3396C64.2152 43.8867 65.7358 45.4073 65.7358 47.2829V47.2829C65.7358 49.1586 67.2563 50.6792 69.132 50.6792H72.5282" stroke="url(#paint4_linear_171_780)" stroke-width="4" stroke-linecap="round"/>
<path d="M38.5661 31.6353V45.5849V45.5849C38.5661 53.0876 32.4839 59.1698 24.9812 59.1698V59.1698" stroke="url(#paint5_linear_171_780)" stroke-width="4" stroke-linecap="round"/>
<path d="M45.3585 31.434V48.9811C45.3585 56.4838 51.4406 62.566 58.9434 62.566V62.566" stroke="url(#paint6_linear_171_780)" stroke-width="4" stroke-linecap="round"/>
<mask id="path-11-outside-1_171_780" maskUnits="userSpaceOnUse" x="30.8872" y="10.811" width="28" height="11" fill="black">
<rect fill="white" x="30.8872" y="10.811" width="28" height="11"/>
<path fill-rule="evenodd" clip-rule="evenodd" d="M45.0152 13.3854L45.2024 14.8106L46.3799 14.6559L46.5631 16.0508L47.5142 15.9259L47.7134 17.442L48.8003 17.2993L48.9995 18.8154L54.1626 18.1373L53.9634 16.6212L55.1561 16.4645L54.9888 15.1909L56.0456 15.0521L55.8305 13.4147L57.1892 13.2362L57.002 11.811L45.0152 13.3854ZM32.8872 14.9783L33.0744 16.4035L34.2658 16.247L34.449 17.6418L35.4113 17.5155L35.6104 19.0316L36.7102 18.8872L36.9093 20.4034L42.1331 19.7173L41.934 18.2011L43.1407 18.0426L42.9734 16.769L44.0426 16.6286L43.8276 14.9911L45.2022 14.8106L45.0151 13.3854L32.8872 14.9783Z"/>
</mask>
<path fill-rule="evenodd" clip-rule="evenodd" d="M45.0152 13.3854L45.2024 14.8106L46.3799 14.6559L46.5631 16.0508L47.5142 15.9259L47.7134 17.442L48.8003 17.2993L48.9995 18.8154L54.1626 18.1373L53.9634 16.6212L55.1561 16.4645L54.9888 15.1909L56.0456 15.0521L55.8305 13.4147L57.1892 13.2362L57.002 11.811L45.0152 13.3854ZM32.8872 14.9783L33.0744 16.4035L34.2658 16.247L34.449 17.6418L35.4113 17.5155L35.6104 19.0316L36.7102 18.8872L36.9093 20.4034L42.1331 19.7173L41.934 18.2011L43.1407 18.0426L42.9734 16.769L44.0426 16.6286L43.8276 14.9911L45.2022 14.8106L45.0151 13.3854L32.8872 14.9783Z" fill="white"/>
<path d="M45.2024 14.8106L44.2109 14.9408C44.2454 15.2037 44.383 15.4422 44.5934 15.6037C44.8037 15.7652 45.0696 15.8366 45.3326 15.802L45.2024 14.8106ZM45.0152 13.3854L44.885 12.3939C44.3374 12.4658 43.9518 12.968 44.0237 13.5156L45.0152 13.3854ZM46.3799 14.6559L47.3714 14.5257C47.3369 14.2627 47.1993 14.0243 46.9889 13.8627C46.7786 13.7012 46.5127 13.6299 46.2497 13.6644L46.3799 14.6559ZM46.5631 16.0508L45.5716 16.181C45.6062 16.444 45.7438 16.6824 45.9541 16.8439C46.1645 17.0055 46.4304 17.0768 46.6933 17.0423L46.5631 16.0508ZM47.5142 15.9259L48.5057 15.7956C48.4712 15.5327 48.3336 15.2942 48.1232 15.1327C47.9129 14.9712 47.647 14.8998 47.384 14.9344L47.5142 15.9259ZM47.7134 17.442L46.7219 17.5722C46.7564 17.8352 46.894 18.0737 47.1043 18.2352C47.3147 18.3967 47.5806 18.468 47.8436 18.4335L47.7134 17.442ZM48.8003 17.2993L49.7918 17.169C49.7199 16.6215 49.2177 16.2359 48.6701 16.3078L48.8003 17.2993ZM48.9995 18.8154L48.008 18.9457C48.0799 19.4932 48.5821 19.8788 49.1297 19.8069L48.9995 18.8154ZM54.1626 18.1373L54.2928 19.1288C54.5557 19.0943 54.7942 18.9567 54.9557 18.7463C55.1172 18.536 55.1886 18.2701 55.154 18.0071L54.1626 18.1373ZM53.9634 16.6212L53.8332 15.6297C53.5702 15.6642 53.3318 15.8018 53.1703 16.0121C53.0087 16.2225 52.9374 16.4884 52.9719 16.7514L53.9634 16.6212ZM55.1561 16.4645L55.2863 17.456C55.8339 17.3841 56.2195 16.8819 56.1475 16.3343L55.1561 16.4645ZM54.9888 15.1909L54.8586 14.1994C54.311 14.2714 53.9254 14.7736 53.9973 15.3212L54.9888 15.1909ZM56.0456 15.0521L56.1758 16.0436C56.7234 15.9717 57.109 15.4695 57.0371 14.9219L56.0456 15.0521ZM55.8305 13.4147L55.7003 12.4232C55.1527 12.4951 54.7671 12.9973 54.839 13.5449L55.8305 13.4147ZM57.1892 13.2362L57.3194 14.2277C57.867 14.1558 58.2526 13.6536 58.1807 13.106L57.1892 13.2362ZM57.002 11.811L57.9935 11.6808C57.959 11.4179 57.8214 11.1794 57.611 11.0179C57.4007 10.8564 57.1348 10.785 56.8718 10.8196L57.002 11.811ZM33.0744 16.4035L32.0829 16.5337C32.1174 16.7966 32.255 17.0351 32.4654 17.1966C32.6757 17.3581 32.9417 17.4295 33.2046 17.3949L33.0744 16.4035ZM32.8872 14.9783L32.757 13.9868C32.2094 14.0587 31.8238 14.5609 31.8957 15.1085L32.8872 14.9783ZM34.2658 16.247L35.2573 16.1168C35.2227 15.8538 35.0852 15.6153 34.8748 15.4538C34.6644 15.2923 34.3985 15.221 34.1356 15.2555L34.2658 16.247ZM34.449 17.6418L33.4575 17.7721C33.5294 18.3196 34.0316 18.7052 34.5792 18.6333L34.449 17.6418ZM35.4113 17.5155L36.4028 17.3852C36.3308 16.8377 35.8286 16.4521 35.2811 16.524L35.4113 17.5155ZM35.6104 19.0316L34.6189 19.1618C34.6535 19.4248 34.791 19.6633 35.0014 19.8248C35.2118 19.9863 35.4777 20.0576 35.7406 20.0231L35.6104 19.0316ZM36.7102 18.8872L37.7016 18.757C37.6297 18.2094 37.1275 17.8238 36.5799 17.8957L36.7102 18.8872ZM36.9093 20.4034L35.9178 20.5336C35.9897 21.0812 36.4919 21.4668 37.0395 21.3948L36.9093 20.4034ZM42.1331 19.7173L42.2634 20.7087C42.8109 20.6368 43.1965 20.1346 43.1246 19.587L42.1331 19.7173ZM41.934 18.2011L41.8038 17.2096C41.2562 17.2815 40.8706 17.7837 40.9425 18.3313L41.934 18.2011ZM43.1407 18.0426L43.2709 19.0341C43.8185 18.9622 44.2041 18.46 44.1322 17.9124L43.1407 18.0426ZM42.9734 16.769L42.8432 15.7775C42.2956 15.8495 41.91 16.3517 41.9819 16.8993L42.9734 16.769ZM44.0426 16.6286L44.1728 17.6201C44.7204 17.5482 45.106 17.046 45.0341 16.4984L44.0426 16.6286ZM43.8276 14.9911L43.6973 13.9997C43.1497 14.0716 42.7641 14.5738 42.8361 15.1214L43.8276 14.9911ZM45.2022 14.8106L45.3325 15.8021C45.5954 15.7675 45.8339 15.63 45.9954 15.4196C46.1569 15.2092 46.2283 14.9433 46.1937 14.6804L45.2022 14.8106ZM45.0151 13.3854L46.0065 13.2552C45.9346 12.7076 45.4324 12.322 44.8848 12.3939L45.0151 13.3854ZM46.1939 14.6803L46.0067 13.2551L44.0237 13.5156L44.2109 14.9408L46.1939 14.6803ZM46.2497 13.6644L45.0722 13.8191L45.3326 15.802L46.5101 15.6474L46.2497 13.6644ZM47.5546 15.9206L47.3714 14.5257L45.3884 14.7861L45.5716 16.181L47.5546 15.9206ZM47.384 14.9344L46.4329 15.0593L46.6933 17.0423L47.6444 16.9173L47.384 14.9344ZM48.7048 17.3118L48.5057 15.7956L46.5227 16.0561L46.7219 17.5722L48.7048 17.3118ZM48.6701 16.3078L47.5831 16.4505L47.8436 18.4335L48.9305 18.2908L48.6701 16.3078ZM49.9909 18.6852L49.7918 17.169L47.8088 17.4295L48.008 18.9457L49.9909 18.6852ZM54.0323 17.1458L48.8692 17.8239L49.1297 19.8069L54.2928 19.1288L54.0323 17.1458ZM52.9719 16.7514L53.1711 18.2675L55.154 18.0071L54.9549 16.4909L52.9719 16.7514ZM55.0258 15.473L53.8332 15.6297L54.0936 17.6126L55.2863 17.456L55.0258 15.473ZM53.9973 15.3212L54.1646 16.5947L56.1475 16.3343L55.9803 15.0607L53.9973 15.3212ZM55.9153 14.0607L54.8586 14.1994L55.119 16.1824L56.1758 16.0436L55.9153 14.0607ZM54.839 13.5449L55.0541 15.1824L57.0371 14.9219L56.822 13.2845L54.839 13.5449ZM57.059 12.2447L55.7003 12.4232L55.9607 14.4062L57.3194 14.2277L57.059 12.2447ZM56.0105 11.9413L56.1977 13.3664L58.1807 13.106L57.9935 11.6808L56.0105 11.9413ZM45.1454 14.3769L57.1323 12.8025L56.8718 10.8196L44.885 12.3939L45.1454 14.3769ZM34.0659 16.2732L33.8787 14.848L31.8957 15.1085L32.0829 16.5337L34.0659 16.2732ZM34.1356 15.2555L32.9442 15.412L33.2046 17.3949L34.396 17.2385L34.1356 15.2555ZM35.4405 17.5116L35.2573 16.1168L33.2743 16.3772L33.4575 17.7721L35.4405 17.5116ZM35.2811 16.524L34.3188 16.6504L34.5792 18.6333L35.5415 18.5069L35.2811 16.524ZM36.6019 18.9014L36.4028 17.3852L34.4198 17.6457L34.6189 19.1618L36.6019 18.9014ZM36.5799 17.8957L35.4802 18.0401L35.7406 20.0231L36.8404 19.8787L36.5799 17.8957ZM37.9008 20.2731L37.7016 18.757L35.7187 19.0174L35.9178 20.5336L37.9008 20.2731ZM42.0029 18.7258L36.7791 19.4119L37.0395 21.3948L42.2634 20.7087L42.0029 18.7258ZM40.9425 18.3313L41.1416 19.8475L43.1246 19.587L42.9255 18.0709L40.9425 18.3313ZM43.0105 17.0511L41.8038 17.2096L42.0642 19.1926L43.2709 19.0341L43.0105 17.0511ZM41.9819 16.8993L42.1492 18.1728L44.1322 17.9124L43.9649 16.6388L41.9819 16.8993ZM43.9124 15.6371L42.8432 15.7775L43.1036 17.7605L44.1728 17.6201L43.9124 15.6371ZM42.8361 15.1214L43.0511 16.7588L45.0341 16.4984L44.819 14.8609L42.8361 15.1214ZM45.072 13.8191L43.6973 13.9997L43.9578 15.9826L45.3325 15.8021L45.072 13.8191ZM44.0236 13.5156L44.2108 14.9408L46.1937 14.6804L46.0065 13.2552L44.0236 13.5156ZM33.0174 15.9697L45.1453 14.3769L44.8848 12.3939L32.757 13.9868L33.0174 15.9697Z" fill="#070708" mask="url(#path-11-outside-1_171_780)"/>
<defs>
<filter id="filter0_f_171_780" x="61.5656" y="12.5466" width="21.9255" height="21.9255" filterUnits="userSpaceOnUse" color-interpolation-filters="sRGB">
<feFlood flood-opacity="0" result="BackgroundImageFix"/>
<feBlend mode="normal" in="SourceGraphic" in2="BackgroundImageFix" result="shape"/>
<feGaussianBlur stdDeviation="3.78326" result="effect1_foregroundBlur_171_780"/>
</filter>
<filter id="filter1_f_171_780" x="48.0812" y="51.641" width="21.9255" height="21.9255" filterUnits="userSpaceOnUse" color-interpolation-filters="sRGB">
<feFlood flood-opacity="0" result="BackgroundImageFix"/>
<feBlend mode="normal" in="SourceGraphic" in2="BackgroundImageFix" result="shape"/>
<feGaussianBlur stdDeviation="3.78326" result="effect1_foregroundBlur_171_780"/>
</filter>
<filter id="filter2_f_171_780" x="0.433484" y="39.7164" width="21.9255" height="21.9255" filterUnits="userSpaceOnUse" color-interpolation-filters="sRGB">
<feFlood flood-opacity="0" result="BackgroundImageFix"/>
<feBlend mode="normal" in="SourceGraphic" in2="BackgroundImageFix" result="shape"/>
<feGaussianBlur stdDeviation="3.78326" result="effect1_foregroundBlur_171_780"/>
</filter>
<linearGradient id="paint0_linear_171_780" x1="46.6918" y1="7.88679" x2="33.1321" y2="35.7736" gradientUnits="userSpaceOnUse">
<stop stop-color="#00FFA3"/>
<stop offset="1" stop-color="#070708"/>
</linearGradient>
<linearGradient id="paint1_linear_171_780" x1="11.4214" y1="23.4843" x2="31.7988" y2="37.0692" gradientUnits="userSpaceOnUse">
<stop stop-color="#00FFA3"/>
<stop offset="1" stop-color="#070708"/>
</linearGradient>
<linearGradient id="paint2_linear_171_780" x1="11.4214" y1="50.654" x2="31.7988" y2="43.8616" gradientUnits="userSpaceOnUse">
<stop stop-color="#00FFA3"/>
<stop offset="1" stop-color="#070708"/>
</linearGradient>
<linearGradient id="paint3_linear_171_780" x1="72.5282" y1="37.0943" x2="52.1509" y2="37.0943" gradientUnits="userSpaceOnUse">
<stop stop-color="#00FFA3"/>
<stop offset="1" stop-color="#070708"/>
</linearGradient>
<linearGradient id="paint4_linear_171_780" x1="72.5282" y1="50.6792" x2="52.1509" y2="50.6792" gradientUnits="userSpaceOnUse">
<stop stop-color="#00FFA3"/>
<stop offset="1" stop-color="#070708"/>
</linearGradient>
<linearGradient id="paint5_linear_171_780" x1="38.5913" y1="27.9623" x2="25.0063" y2="59.1573" gradientUnits="userSpaceOnUse">
<stop stop-color="#00FFA3"/>
<stop offset="1" stop-color="#070708"/>
</linearGradient>
<linearGradient id="paint6_linear_171_780" x1="45.3836" y1="27.2075" x2="58.9685" y2="62.5786" gradientUnits="userSpaceOnUse">
<stop stop-color="#070708"/>
<stop offset="1" stop-color="#00FFA3"/>
</linearGradient>
</defs>
</svg>
