<svg width="55" height="49" viewBox="0 0 55 49" fill="none" xmlns="http://www.w3.org/2000/svg">
<g filter="url(#filter0_f_171_732)">
<rect x="45.1179" y="18.3444" width="4.45755" height="4.45755" rx="2.22877" transform="rotate(-90 45.1179 18.3444)" fill="#00FFA3"/>
</g>
<g filter="url(#filter1_f_171_732)">
<rect x="36.2688" y="44" width="4.45755" height="4.45755" rx="2.22877" transform="rotate(-90 36.2688 44)" fill="#00FFA3"/>
</g>
<g filter="url(#filter2_f_171_732)">
<rect x="5" y="36.1745" width="4.45755" height="4.45755" rx="2.22877" transform="rotate(-90 5 36.1745)" fill="#00FFA3"/>
</g>
<path d="M9.45752 9.42925V9.42925C12.0494 9.42925 14.281 11.2587 14.7893 13.8002L15.7339 18.5234C15.9723 19.7152 17.0187 20.5731 18.2341 20.5731V20.5731C19.8431 20.5731 21.0499 19.1011 20.7344 17.5233L19.487 11.2866C18.5261 6.48231 22.2008 2 27.1001 2H27.4753C32.3747 2 36.0493 6.4823 35.0884 11.2866L33.8411 17.5233C33.5255 19.1011 34.7323 20.5731 36.3413 20.5731V20.5731C37.5567 20.5731 38.6031 19.7152 38.8415 18.5234L39.7861 13.8002C40.2945 11.2587 42.526 9.42925 45.1179 9.42925V9.42925" stroke="url(#paint0_linear_171_732)" stroke-width="2.625" stroke-linecap="round" stroke-linejoin="round"/>
<path d="M7.22876 16.1155V16.1155C9.69059 16.1155 11.6863 18.1113 11.6863 20.5731V20.5731C11.6863 23.0349 13.682 25.0306 16.1439 25.0306H20.6014" stroke="url(#paint1_linear_171_732)" stroke-width="2.625" stroke-linecap="round"/>
<path d="M20.6014 29.4882H13.9151C12.6842 29.4882 11.6863 30.4861 11.6863 31.717V31.717C11.6863 32.9479 10.6884 33.9458 9.45753 33.9458H7.22876" stroke="url(#paint2_linear_171_732)" stroke-width="2.625" stroke-linecap="round"/>
<path d="M33.9741 25.0306H38.4317C40.8935 25.0306 42.8892 23.0349 42.8892 20.5731V20.5731C42.8892 18.1113 44.8849 16.1155 47.3468 16.1155V16.1155" stroke="url(#paint3_linear_171_732)" stroke-width="2.625" stroke-linecap="round"/>
<path d="M33.9741 29.4882H40.6604C41.8914 29.4882 42.8892 30.4861 42.8892 31.717V31.717C42.8892 32.9479 43.8871 33.9458 45.118 33.9458H47.3468" stroke="url(#paint4_linear_171_732)" stroke-width="2.625" stroke-linecap="round"/>
<path d="M25.0589 21.4481V30.6026V30.6026C25.0589 35.5263 21.0675 39.5177 16.1438 39.5177V39.5177" stroke="url(#paint5_linear_171_732)" stroke-width="2.625" stroke-linecap="round"/>
<path d="M29.5165 21.316V32.8314C29.5165 37.755 33.508 41.7464 38.4316 41.7464V41.7464" stroke="url(#paint6_linear_171_732)" stroke-width="2.625" stroke-linecap="round"/>
<mask id="path-11-outside-1_171_732" maskUnits="userSpaceOnUse" x="20.3323" y="7.43854" width="18" height="8" fill="black">
<rect fill="white" x="20.3323" y="7.43854" width="18" height="8"/>
<path fill-rule="evenodd" clip-rule="evenodd" d="M29.2913 9.47169L29.4141 10.407L30.1869 10.3055L30.3071 11.2209L30.9313 11.1389L31.0619 12.1339L31.7753 12.0402L31.9059 13.0352L35.2942 12.5902L35.1635 11.5952L35.9462 11.4924L35.8364 10.6566L36.5299 10.5655L36.3888 9.49093L37.2805 9.37382L37.1576 8.43854L29.2913 9.47169ZM21.3323 10.517L21.4551 11.4523L22.237 11.3496L22.3572 12.265L22.9887 12.1821L23.1194 13.177L23.8411 13.0823L23.9718 14.0772L27.3999 13.627L27.2692 12.632L28.0611 12.528L27.9513 11.6922L28.653 11.6001L28.5119 10.5255L29.414 10.407L29.2912 9.47172L21.3323 10.517Z"/>
</mask>
<path fill-rule="evenodd" clip-rule="evenodd" d="M29.2913 9.47169L29.4141 10.407L30.1869 10.3055L30.3071 11.2209L30.9313 11.1389L31.0619 12.1339L31.7753 12.0402L31.9059 13.0352L35.2942 12.5902L35.1635 11.5952L35.9462 11.4924L35.8364 10.6566L36.5299 10.5655L36.3888 9.49093L37.2805 9.37382L37.1576 8.43854L29.2913 9.47169ZM21.3323 10.517L21.4551 11.4523L22.237 11.3496L22.3572 12.265L22.9887 12.1821L23.1194 13.177L23.8411 13.0823L23.9718 14.0772L27.3999 13.627L27.2692 12.632L28.0611 12.528L27.9513 11.6922L28.653 11.6001L28.5119 10.5255L29.414 10.407L29.2912 9.47172L21.3323 10.517Z" fill="white"/>
<path d="M29.4141 10.407L28.7634 10.4924C28.7861 10.665 28.8764 10.8215 29.0144 10.9275C29.1525 11.0335 29.327 11.0803 29.4996 11.0576L29.4141 10.407ZM29.2913 9.47169L29.2058 8.82103C28.8465 8.86823 28.5934 9.1978 28.6406 9.55715L29.2913 9.47169ZM30.1869 10.3055L30.8375 10.22C30.8149 10.0475 30.7246 9.89097 30.5865 9.78497C30.4485 9.67897 30.274 9.63216 30.1014 9.65482L30.1869 10.3055ZM30.3071 11.2209L29.6564 11.3063C29.6791 11.4789 29.7694 11.6354 29.9074 11.7414C30.0455 11.8474 30.22 11.8942 30.3926 11.8715L30.3071 11.2209ZM30.9313 11.1389L31.5819 11.0534C31.5347 10.6941 31.2051 10.441 30.8458 10.4882L30.9313 11.1389ZM31.0619 12.1339L30.4113 12.2193C30.4585 12.5787 30.788 12.8317 31.1474 12.7845L31.0619 12.1339ZM31.7753 12.0402L32.4259 11.9547C32.4033 11.7822 32.313 11.6257 32.1749 11.5197C32.0369 11.4137 31.8624 11.3669 31.6898 11.3895L31.7753 12.0402ZM31.9059 13.0352L31.2553 13.1206C31.2779 13.2932 31.3682 13.4497 31.5063 13.5557C31.6443 13.6617 31.8188 13.7085 31.9914 13.6858L31.9059 13.0352ZM35.2942 12.5902L35.3797 13.2408C35.739 13.1936 35.9921 12.8641 35.9449 12.5047L35.2942 12.5902ZM35.1635 11.5952L35.0781 10.9445C34.7187 10.9917 34.4657 11.3213 34.5129 11.6806L35.1635 11.5952ZM35.9462 11.4924L36.0317 12.143C36.391 12.0958 36.6441 11.7663 36.5969 11.4069L35.9462 11.4924ZM35.8364 10.6566L35.751 10.0059C35.5784 10.0286 35.4219 10.1189 35.3159 10.2569C35.2099 10.395 35.1631 10.5695 35.1858 10.7421L35.8364 10.6566ZM36.5299 10.5655L36.6154 11.2162C36.788 11.1935 36.9445 11.1032 37.0505 10.9652C37.1565 10.8271 37.2033 10.6526 37.1806 10.4801L36.5299 10.5655ZM36.3888 9.49093L36.3034 8.84027C36.1308 8.86293 35.9743 8.95322 35.8683 9.09127C35.7623 9.22932 35.7155 9.40382 35.7382 9.57639L36.3888 9.49093ZM37.2805 9.37382L37.3659 10.0245C37.7253 9.97729 37.9783 9.64772 37.9311 9.28837L37.2805 9.37382ZM37.1576 8.43854L37.8083 8.35308C37.7856 8.18051 37.6953 8.02402 37.5573 7.91802C37.4192 7.81203 37.2447 7.76521 37.0722 7.78788L37.1576 8.43854ZM21.4551 11.4523L20.8045 11.5378C20.8271 11.7103 20.9174 11.8668 21.0555 11.9728C21.1935 12.0788 21.368 12.1256 21.5406 12.103L21.4551 11.4523ZM21.3323 10.517L21.2468 9.86636C20.8875 9.91356 20.6344 10.2431 20.6816 10.6025L21.3323 10.517ZM22.237 11.3496L22.8876 11.2642C22.865 11.0916 22.7747 10.9351 22.6366 10.8291C22.4986 10.7231 22.3241 10.6763 22.1515 10.699L22.237 11.3496ZM22.3572 12.265L21.7065 12.3505C21.7537 12.7098 22.0833 12.9629 22.4427 12.9157L22.3572 12.265ZM22.9887 12.1821L23.6394 12.0966C23.5922 11.7373 23.2626 11.4842 22.9032 11.5314L22.9887 12.1821ZM23.1194 13.177L22.4687 13.2625C22.5159 13.6219 22.8455 13.8749 23.2048 13.8277L23.1194 13.177ZM23.8411 13.0823L24.4918 12.9968C24.4446 12.6375 24.115 12.3844 23.7556 12.4316L23.8411 13.0823ZM23.9718 14.0772L23.3211 14.1627C23.3438 14.3353 23.4341 14.4918 23.5721 14.5978C23.7102 14.7038 23.8847 14.7506 24.0572 14.7279L23.9718 14.0772ZM27.3999 13.627L27.4854 14.2777C27.6579 14.255 27.8144 14.1647 27.9204 14.0267C28.0264 13.8886 28.0732 13.7141 28.0506 13.5415L27.3999 13.627ZM27.2692 12.632L27.1838 11.9814C27.0112 12.004 26.8547 12.0943 26.7487 12.2324C26.6427 12.3704 26.5959 12.5449 26.6186 12.7175L27.2692 12.632ZM28.0611 12.528L28.1466 13.1787C28.3191 13.156 28.4756 13.0657 28.5816 12.9277C28.6876 12.7896 28.7344 12.6151 28.7118 12.4426L28.0611 12.528ZM27.9513 11.6922L27.8659 11.0416C27.6933 11.0642 27.5368 11.1545 27.4308 11.2926C27.3248 11.4306 27.278 11.6051 27.3007 11.7777L27.9513 11.6922ZM28.653 11.6001L28.7385 12.2507C29.0978 12.2035 29.3509 11.874 29.3037 11.5146L28.653 11.6001ZM28.5119 10.5255L28.4264 9.87482C28.0671 9.92202 27.814 10.2516 27.8612 10.6109L28.5119 10.5255ZM29.414 10.407L29.4995 11.0577C29.672 11.035 29.8285 10.9447 29.9345 10.8067C30.0405 10.6686 30.0873 10.4941 30.0647 10.3215L29.414 10.407ZM29.2912 9.47172L29.9418 9.38626C29.8946 9.02691 29.5651 8.77386 29.2057 8.82105L29.2912 9.47172ZM30.0648 10.3215L29.9419 9.38624L28.6406 9.55715L28.7634 10.4924L30.0648 10.3215ZM30.1014 9.65482L29.3287 9.75632L29.4996 11.0576L30.2723 10.9561L30.1014 9.65482ZM30.9578 11.1354L30.8375 10.22L29.5362 10.3909L29.6564 11.3063L30.9578 11.1354ZM30.8458 10.4882L30.2216 10.5702L30.3926 11.8715L31.0167 11.7896L30.8458 10.4882ZM31.7126 12.0484L31.5819 11.0534L30.2806 11.2243L30.4113 12.2193L31.7126 12.0484ZM31.6898 11.3895L30.9765 11.4832L31.1474 12.7845L31.8607 12.6909L31.6898 11.3895ZM32.5566 12.9497L32.4259 11.9547L31.1246 12.1256L31.2553 13.1206L32.5566 12.9497ZM35.2088 11.9395L31.8205 12.3845L31.9914 13.6858L35.3797 13.2408L35.2088 11.9395ZM34.5129 11.6806L34.6436 12.6756L35.9449 12.5047L35.8142 11.5097L34.5129 11.6806ZM35.8608 10.8417L35.0781 10.9445L35.249 12.2458L36.0317 12.143L35.8608 10.8417ZM35.1858 10.7421L35.2956 11.5778L36.5969 11.4069L36.4871 10.5711L35.1858 10.7421ZM36.4445 9.91485L35.751 10.0059L35.9219 11.3073L36.6154 11.2162L36.4445 9.91485ZM35.7382 9.57639L35.8793 10.651L37.1806 10.4801L37.0395 9.40547L35.7382 9.57639ZM37.195 8.72316L36.3034 8.84027L36.4743 10.1416L37.3659 10.0245L37.195 8.72316ZM36.507 8.52399L36.6298 9.45928L37.9311 9.28837L37.8083 8.35308L36.507 8.52399ZM29.3767 10.1224L37.2431 9.0892L37.0722 7.78788L29.2058 8.82103L29.3767 10.1224ZM22.1058 11.3669L21.9829 10.4316L20.6816 10.6025L20.8045 11.5378L22.1058 11.3669ZM22.1515 10.699L21.3697 10.8016L21.5406 12.103L22.3224 12.0003L22.1515 10.699ZM23.0079 12.1795L22.8876 11.2642L21.5863 11.4351L21.7065 12.3505L23.0079 12.1795ZM22.9032 11.5314L22.2717 11.6143L22.4427 12.9157L23.0742 12.8327L22.9032 11.5314ZM23.77 13.0916L23.6394 12.0966L22.338 12.2675L22.4687 13.2625L23.77 13.0916ZM23.7556 12.4316L23.0339 12.5264L23.2048 13.8277L23.9265 13.7329L23.7556 12.4316ZM24.6224 13.9918L24.4918 12.9968L23.1904 13.1677L23.3211 14.1627L24.6224 13.9918ZM27.3145 12.9763L23.8863 13.4266L24.0572 14.7279L27.4854 14.2777L27.3145 12.9763ZM26.6186 12.7175L26.7493 13.7125L28.0506 13.5415L27.9199 12.5466L26.6186 12.7175ZM27.9757 11.8773L27.1838 11.9814L27.3547 13.2827L28.1466 13.1787L27.9757 11.8773ZM27.3007 11.7777L27.4105 12.6135L28.7118 12.4426L28.602 11.6068L27.3007 11.7777ZM28.5676 10.9494L27.8659 11.0416L28.0368 12.3429L28.7385 12.2507L28.5676 10.9494ZM27.8612 10.6109L28.0023 11.6855L29.3037 11.5146L29.1625 10.44L27.8612 10.6109ZM29.3286 9.75634L28.4264 9.87482L28.5973 11.1761L29.4995 11.0577L29.3286 9.75634ZM28.6405 9.55717L28.7634 10.4925L30.0647 10.3215L29.9418 9.38626L28.6405 9.55717ZM21.4177 11.1677L29.3766 10.1224L29.2057 8.82105L21.2468 9.86636L21.4177 11.1677Z" fill="#070708" mask="url(#path-11-outside-1_171_732)"/>
<defs>
<filter id="filter0_f_171_732" x="40.1524" y="8.92131" width="14.3886" height="14.3886" filterUnits="userSpaceOnUse" color-interpolation-filters="sRGB">
<feFlood flood-opacity="0" result="BackgroundImageFix"/>
<feBlend mode="normal" in="SourceGraphic" in2="BackgroundImageFix" result="shape"/>
<feGaussianBlur stdDeviation="2.48276" result="effect1_foregroundBlur_171_732"/>
</filter>
<filter id="filter1_f_171_732" x="31.3033" y="34.577" width="14.3886" height="14.3886" filterUnits="userSpaceOnUse" color-interpolation-filters="sRGB">
<feFlood flood-opacity="0" result="BackgroundImageFix"/>
<feBlend mode="normal" in="SourceGraphic" in2="BackgroundImageFix" result="shape"/>
<feGaussianBlur stdDeviation="2.48276" result="effect1_foregroundBlur_171_732"/>
</filter>
<filter id="filter2_f_171_732" x="0.0344739" y="26.7515" width="14.3886" height="14.3886" filterUnits="userSpaceOnUse" color-interpolation-filters="sRGB">
<feFlood flood-opacity="0" result="BackgroundImageFix"/>
<feBlend mode="normal" in="SourceGraphic" in2="BackgroundImageFix" result="shape"/>
<feGaussianBlur stdDeviation="2.48276" result="effect1_foregroundBlur_171_732"/>
</filter>
<linearGradient id="paint0_linear_171_732" x1="30.3915" y1="5.86321" x2="21.4929" y2="24.1639" gradientUnits="userSpaceOnUse">
<stop stop-color="#00FFA3"/>
<stop offset="1" stop-color="#070708"/>
</linearGradient>
<linearGradient id="paint1_linear_171_732" x1="7.24527" y1="16.099" x2="20.6179" y2="25.0141" gradientUnits="userSpaceOnUse">
<stop stop-color="#00FFA3"/>
<stop offset="1" stop-color="#070708"/>
</linearGradient>
<linearGradient id="paint2_linear_171_732" x1="7.24527" y1="33.9293" x2="20.6179" y2="29.4717" gradientUnits="userSpaceOnUse">
<stop stop-color="#00FFA3"/>
<stop offset="1" stop-color="#070708"/>
</linearGradient>
<linearGradient id="paint3_linear_171_732" x1="47.3468" y1="25.0306" x2="33.9741" y2="25.0306" gradientUnits="userSpaceOnUse">
<stop stop-color="#00FFA3"/>
<stop offset="1" stop-color="#070708"/>
</linearGradient>
<linearGradient id="paint4_linear_171_732" x1="47.3468" y1="33.9458" x2="33.9741" y2="33.9458" gradientUnits="userSpaceOnUse">
<stop stop-color="#00FFA3"/>
<stop offset="1" stop-color="#070708"/>
</linearGradient>
<linearGradient id="paint5_linear_171_732" x1="25.0754" y1="19.0377" x2="16.1603" y2="39.5094" gradientUnits="userSpaceOnUse">
<stop stop-color="#00FFA3"/>
<stop offset="1" stop-color="#070708"/>
</linearGradient>
<linearGradient id="paint6_linear_171_732" x1="29.5331" y1="18.5425" x2="38.4481" y2="41.7547" gradientUnits="userSpaceOnUse">
<stop stop-color="#070708"/>
<stop offset="1" stop-color="#00FFA3"/>
</linearGradient>
</defs>
</svg>
